<svg xmlns="http://www.w3.org/2000/svg" xmlns:xlink="http://www.w3.org/1999/xlink" width="64" zoomAndPan="magnify" viewBox="0 0 48 48" height="64" preserveAspectRatio="xMidYMid meet" version="1.0"><defs><clipPath id="382a18e262"><path d="M 0.488281 0 L 23 0 L 23 23 L 0.488281 23 Z M 0.488281 0 " clip-rule="nonzero"/></clipPath><clipPath id="1857442527"><path d="M 25 0 L 47.507812 0 L 47.507812 23 L 25 23 Z M 25 0 " clip-rule="nonzero"/></clipPath><clipPath id="d87ef86235"><path d="M 0.488281 24 L 23 24 L 23 47.019531 L 0.488281 47.019531 Z M 0.488281 24 " clip-rule="nonzero"/></clipPath><clipPath id="7687bf978d"><path d="M 25 24 L 47.507812 24 L 47.507812 47.019531 L 25 47.019531 Z M 25 24 " clip-rule="nonzero"/></clipPath></defs><g clip-path="url(#382a18e262)"><path fill="#ffffff" d="M 6.367188 0 L 16.652344 0 C 17.039062 0 17.421875 0.0390625 17.800781 0.113281 C 18.179688 0.1875 18.546875 0.300781 18.902344 0.449219 C 19.257812 0.59375 19.597656 0.777344 19.917969 0.992188 C 20.238281 1.203125 20.535156 1.449219 20.808594 1.722656 C 21.082031 1.996094 21.324219 2.292969 21.539062 2.613281 C 21.753906 2.933594 21.933594 3.273438 22.082031 3.628906 C 22.230469 3.984375 22.34375 4.351562 22.417969 4.730469 C 22.492188 5.109375 22.53125 5.492188 22.53125 5.878906 L 22.53125 16.164062 C 22.53125 16.550781 22.492188 16.929688 22.417969 17.308594 C 22.34375 17.6875 22.230469 18.054688 22.082031 18.414062 C 21.933594 18.769531 21.753906 19.109375 21.539062 19.429688 C 21.324219 19.75 21.082031 20.046875 20.808594 20.320312 C 20.535156 20.59375 20.238281 20.835938 19.917969 21.050781 C 19.597656 21.265625 19.257812 21.445312 18.902344 21.59375 C 18.546875 21.742188 18.179688 21.851562 17.800781 21.929688 C 17.421875 22.003906 17.039062 22.039062 16.652344 22.039062 L 6.367188 22.039062 C 5.980469 22.039062 5.597656 22.003906 5.21875 21.929688 C 4.84375 21.851562 4.476562 21.742188 4.117188 21.59375 C 3.761719 21.445312 3.421875 21.265625 3.101562 21.050781 C 2.78125 20.835938 2.484375 20.59375 2.210938 20.320312 C 1.9375 20.046875 1.695312 19.75 1.480469 19.429688 C 1.265625 19.109375 1.085938 18.769531 0.9375 18.414062 C 0.789062 18.054688 0.679688 17.6875 0.601562 17.308594 C 0.527344 16.929688 0.488281 16.550781 0.488281 16.164062 L 0.488281 5.878906 C 0.488281 5.492188 0.527344 5.109375 0.601562 4.730469 C 0.679688 4.351562 0.789062 3.984375 0.9375 3.628906 C 1.085938 3.273438 1.265625 2.933594 1.480469 2.613281 C 1.695312 2.292969 1.9375 1.996094 2.210938 1.722656 C 2.484375 1.449219 2.78125 1.203125 3.101562 0.992188 C 3.421875 0.777344 3.761719 0.59375 4.117188 0.449219 C 4.476562 0.300781 4.84375 0.1875 5.21875 0.113281 C 5.597656 0.0390625 5.980469 0 6.367188 0 Z M 6.367188 0 " fill-opacity="1" fill-rule="nonzero"/></g><g clip-path="url(#1857442527)"><path fill="#ffffff" d="M 31.347656 0 L 41.632812 0 C 42.019531 0 42.402344 0.0390625 42.78125 0.113281 C 43.15625 0.1875 43.523438 0.300781 43.882812 0.449219 C 44.238281 0.59375 44.578125 0.777344 44.898438 0.992188 C 45.21875 1.203125 45.515625 1.449219 45.789062 1.722656 C 46.0625 1.996094 46.304688 2.292969 46.519531 2.613281 C 46.734375 2.933594 46.914062 3.273438 47.0625 3.628906 C 47.210938 3.984375 47.320312 4.351562 47.398438 4.730469 C 47.472656 5.109375 47.511719 5.492188 47.511719 5.878906 L 47.511719 16.164062 C 47.511719 16.550781 47.472656 16.929688 47.398438 17.308594 C 47.320312 17.6875 47.210938 18.054688 47.0625 18.414062 C 46.914062 18.769531 46.734375 19.109375 46.519531 19.429688 C 46.304688 19.75 46.0625 20.046875 45.789062 20.320312 C 45.515625 20.59375 45.21875 20.835938 44.898438 21.050781 C 44.578125 21.265625 44.238281 21.445312 43.882812 21.59375 C 43.523438 21.742188 43.15625 21.851562 42.78125 21.929688 C 42.402344 22.003906 42.019531 22.039062 41.632812 22.039062 L 31.347656 22.039062 C 30.960938 22.039062 30.578125 22.003906 30.199219 21.929688 C 29.820312 21.851562 29.453125 21.742188 29.097656 21.59375 C 28.742188 21.445312 28.402344 21.265625 28.082031 21.050781 C 27.761719 20.835938 27.464844 20.59375 27.191406 20.320312 C 26.917969 20.046875 26.675781 19.75 26.460938 19.429688 C 26.246094 19.109375 26.066406 18.769531 25.917969 18.414062 C 25.769531 18.054688 25.65625 17.6875 25.582031 17.308594 C 25.507812 16.929688 25.46875 16.550781 25.46875 16.164062 L 25.46875 5.878906 C 25.46875 5.492188 25.507812 5.109375 25.582031 4.730469 C 25.65625 4.351562 25.769531 3.984375 25.917969 3.628906 C 26.066406 3.273438 26.246094 2.933594 26.460938 2.613281 C 26.675781 2.292969 26.917969 1.996094 27.191406 1.722656 C 27.464844 1.449219 27.761719 1.203125 28.082031 0.992188 C 28.402344 0.777344 28.742188 0.59375 29.097656 0.449219 C 29.453125 0.300781 29.820312 0.1875 30.199219 0.113281 C 30.578125 0.0390625 30.960938 0 31.347656 0 Z M 31.347656 0 " fill-opacity="1" fill-rule="nonzero"/></g><g clip-path="url(#d87ef86235)"><path fill="#ffffff" d="M 6.367188 24.980469 L 16.652344 24.980469 C 17.039062 24.980469 17.421875 25.015625 17.800781 25.09375 C 18.179688 25.167969 18.546875 25.28125 18.902344 25.425781 C 19.257812 25.574219 19.597656 25.753906 19.917969 25.96875 C 20.238281 26.183594 20.535156 26.429688 20.808594 26.699219 C 21.082031 26.972656 21.324219 27.269531 21.539062 27.589844 C 21.753906 27.914062 21.933594 28.25 22.082031 28.609375 C 22.230469 28.964844 22.34375 29.332031 22.417969 29.710938 C 22.492188 30.089844 22.53125 30.472656 22.53125 30.855469 L 22.53125 41.144531 C 22.53125 41.527344 22.492188 41.910156 22.417969 42.289062 C 22.34375 42.667969 22.230469 43.035156 22.082031 43.390625 C 21.933594 43.75 21.753906 44.085938 21.539062 44.410156 C 21.324219 44.730469 21.082031 45.027344 20.808594 45.300781 C 20.535156 45.570312 20.238281 45.816406 19.917969 46.03125 C 19.597656 46.246094 19.257812 46.425781 18.902344 46.574219 C 18.546875 46.71875 18.179688 46.832031 17.800781 46.90625 C 17.421875 46.984375 17.039062 47.019531 16.652344 47.019531 L 6.367188 47.019531 C 5.980469 47.019531 5.597656 46.984375 5.21875 46.90625 C 4.84375 46.832031 4.476562 46.71875 4.117188 46.574219 C 3.761719 46.425781 3.421875 46.246094 3.101562 46.03125 C 2.78125 45.816406 2.484375 45.570312 2.210938 45.300781 C 1.9375 45.027344 1.695312 44.730469 1.480469 44.410156 C 1.265625 44.085938 1.085938 43.75 0.9375 43.390625 C 0.789062 43.035156 0.679688 42.667969 0.601562 42.289062 C 0.527344 41.910156 0.488281 41.527344 0.488281 41.144531 L 0.488281 30.855469 C 0.488281 30.472656 0.527344 30.089844 0.601562 29.710938 C 0.679688 29.332031 0.789062 28.964844 0.9375 28.609375 C 1.085938 28.25 1.265625 27.914062 1.480469 27.589844 C 1.695312 27.269531 1.9375 26.972656 2.210938 26.699219 C 2.484375 26.429688 2.78125 26.183594 3.101562 25.96875 C 3.421875 25.753906 3.761719 25.574219 4.117188 25.425781 C 4.476562 25.28125 4.84375 25.167969 5.21875 25.09375 C 5.597656 25.015625 5.980469 24.980469 6.367188 24.980469 Z M 6.367188 24.980469 " fill-opacity="1" fill-rule="nonzero"/></g><g clip-path="url(#7687bf978d)"><path fill="#ffffff" d="M 31.347656 24.980469 L 41.632812 24.980469 C 42.019531 24.980469 42.402344 25.015625 42.78125 25.09375 C 43.15625 25.167969 43.523438 25.28125 43.882812 25.425781 C 44.238281 25.574219 44.578125 25.753906 44.898438 25.96875 C 45.21875 26.183594 45.515625 26.429688 45.789062 26.699219 C 46.0625 26.972656 46.304688 27.269531 46.519531 27.589844 C 46.734375 27.914062 46.914062 28.25 47.0625 28.609375 C 47.210938 28.964844 47.320312 29.332031 47.398438 29.710938 C 47.472656 30.089844 47.511719 30.472656 47.511719 30.855469 L 47.511719 41.144531 C 47.511719 41.527344 47.472656 41.910156 47.398438 42.289062 C 47.320312 42.667969 47.210938 43.035156 47.0625 43.390625 C 46.914062 43.75 46.734375 44.085938 46.519531 44.410156 C 46.304688 44.730469 46.0625 45.027344 45.789062 45.300781 C 45.515625 45.570312 45.21875 45.816406 44.898438 46.03125 C 44.578125 46.246094 44.238281 46.425781 43.882812 46.574219 C 43.523438 46.71875 43.15625 46.832031 42.78125 46.90625 C 42.402344 46.984375 42.019531 47.019531 41.632812 47.019531 L 31.347656 47.019531 C 30.960938 47.019531 30.578125 46.984375 30.199219 46.90625 C 29.820312 46.832031 29.453125 46.71875 29.097656 46.574219 C 28.742188 46.425781 28.402344 46.246094 28.082031 46.03125 C 27.761719 45.816406 27.464844 45.570312 27.191406 45.300781 C 26.917969 45.027344 26.675781 44.730469 26.460938 44.410156 C 26.246094 44.085938 26.066406 43.75 25.917969 43.390625 C 25.769531 43.035156 25.65625 42.667969 25.582031 42.289062 C 25.507812 41.910156 25.46875 41.527344 25.46875 41.144531 L 25.46875 30.855469 C 25.46875 30.472656 25.507812 30.089844 25.582031 29.710938 C 25.65625 29.332031 25.769531 28.964844 25.917969 28.609375 C 26.066406 28.25 26.246094 27.914062 26.460938 27.589844 C 26.675781 27.269531 26.917969 26.972656 27.191406 26.699219 C 27.464844 26.429688 27.761719 26.183594 28.082031 25.96875 C 28.402344 25.753906 28.742188 25.574219 29.097656 25.425781 C 29.453125 25.28125 29.820312 25.167969 30.199219 25.09375 C 30.578125 25.015625 30.960938 24.980469 31.347656 24.980469 Z M 31.347656 24.980469 " fill-opacity="1" fill-rule="nonzero"/></g></svg>