<svg xmlns="http://www.w3.org/2000/svg" xmlns:xlink="http://www.w3.org/1999/xlink" width="64" zoomAndPan="magnify" viewBox="0 0 48 48" height="64" preserveAspectRatio="xMidYMid meet" version="1.0"><defs><clipPath id="b6c639988f"><path d="M 16 17.039062 L 31 17.039062 L 31 32 L 16 32 Z M 16 17.039062 " clip-rule="nonzero"/></clipPath><clipPath id="acb3ce0195"><path d="M 10 33 L 37 33 L 37 47.019531 L 10 47.019531 Z M 10 33 " clip-rule="nonzero"/></clipPath><clipPath id="498cf69d47"><path d="M 0.488281 37 L 12 37 L 12 47.019531 L 0.488281 47.019531 Z M 0.488281 37 " clip-rule="nonzero"/></clipPath><clipPath id="1f8979eadd"><path d="M 35 37 L 46.777344 37 L 46.777344 47.019531 L 35 47.019531 Z M 35 37 " clip-rule="nonzero"/></clipPath></defs><g clip-path="url(#b6c639988f)"><path fill="#ffffff" d="M 30.5 24.03125 C 30.5 24.492188 30.457031 24.945312 30.367188 25.394531 C 30.277344 25.847656 30.144531 26.285156 29.96875 26.707031 C 29.792969 27.132812 29.578125 27.535156 29.320312 27.917969 C 29.066406 28.300781 28.777344 28.652344 28.453125 28.976562 C 28.128906 29.300781 27.773438 29.59375 27.390625 29.847656 C 27.011719 30.101562 26.605469 30.316406 26.183594 30.492188 C 25.757812 30.667969 25.320312 30.800781 24.871094 30.890625 C 24.421875 30.980469 23.964844 31.027344 23.507812 31.027344 C 23.046875 31.027344 22.59375 30.980469 22.140625 30.890625 C 21.691406 30.800781 21.253906 30.667969 20.828125 30.492188 C 20.40625 30.316406 20.003906 30.101562 19.621094 29.847656 C 19.238281 29.59375 18.886719 29.300781 18.5625 28.976562 C 18.238281 28.652344 17.945312 28.300781 17.691406 27.917969 C 17.4375 27.535156 17.222656 27.132812 17.046875 26.707031 C 16.871094 26.285156 16.738281 25.847656 16.648438 25.394531 C 16.558594 24.945312 16.511719 24.492188 16.511719 24.03125 C 16.511719 23.574219 16.558594 23.117188 16.648438 22.667969 C 16.738281 22.21875 16.871094 21.78125 17.046875 21.355469 C 17.222656 20.929688 17.4375 20.527344 17.691406 20.144531 C 17.945312 19.765625 18.238281 19.410156 18.5625 19.085938 C 18.886719 18.761719 19.238281 18.472656 19.621094 18.21875 C 20.003906 17.960938 20.40625 17.746094 20.828125 17.570312 C 21.253906 17.394531 21.691406 17.261719 22.140625 17.171875 C 22.59375 17.082031 23.046875 17.039062 23.507812 17.039062 C 23.964844 17.039062 24.421875 17.082031 24.871094 17.171875 C 25.320312 17.261719 25.757812 17.394531 26.183594 17.570312 C 26.605469 17.746094 27.011719 17.960938 27.390625 18.21875 C 27.773438 18.472656 28.128906 18.761719 28.453125 19.085938 C 28.777344 19.410156 29.066406 19.765625 29.320312 20.144531 C 29.578125 20.527344 29.792969 20.929688 29.96875 21.355469 C 30.144531 21.78125 30.277344 22.21875 30.367188 22.667969 C 30.457031 23.117188 30.5 23.574219 30.5 24.03125 Z M 30.5 24.03125 " fill-opacity="1" fill-rule="nonzero"/></g><path fill="#ffffff" d="M 42.488281 30.027344 C 42.488281 30.355469 42.457031 30.679688 42.394531 31 C 42.328125 31.324219 42.234375 31.636719 42.109375 31.9375 C 41.984375 32.242188 41.828125 32.527344 41.648438 32.800781 C 41.464844 33.074219 41.257812 33.328125 41.027344 33.558594 C 40.792969 33.789062 40.542969 33.996094 40.269531 34.179688 C 39.996094 34.363281 39.707031 34.515625 39.40625 34.640625 C 39.101562 34.765625 38.789062 34.863281 38.46875 34.925781 C 38.148438 34.988281 37.820312 35.023438 37.492188 35.023438 C 37.164062 35.023438 36.839844 34.988281 36.519531 34.925781 C 36.199219 34.863281 35.886719 34.765625 35.582031 34.640625 C 35.277344 34.515625 34.992188 34.363281 34.71875 34.179688 C 34.445312 33.996094 34.195312 33.789062 33.960938 33.558594 C 33.730469 33.328125 33.523438 33.074219 33.339844 32.800781 C 33.15625 32.527344 33.003906 32.242188 32.878906 31.9375 C 32.753906 31.636719 32.660156 31.324219 32.59375 31 C 32.53125 30.679688 32.5 30.355469 32.5 30.027344 C 32.5 29.699219 32.53125 29.375 32.59375 29.050781 C 32.660156 28.730469 32.753906 28.417969 32.878906 28.113281 C 33.003906 27.8125 33.15625 27.523438 33.339844 27.25 C 33.523438 26.976562 33.730469 26.726562 33.960938 26.496094 C 34.195312 26.261719 34.445312 26.054688 34.71875 25.871094 C 34.992188 25.691406 35.277344 25.535156 35.582031 25.410156 C 35.886719 25.285156 36.199219 25.191406 36.519531 25.128906 C 36.839844 25.0625 37.164062 25.03125 37.492188 25.03125 C 37.820312 25.03125 38.148438 25.0625 38.46875 25.128906 C 38.789062 25.191406 39.101562 25.285156 39.40625 25.410156 C 39.707031 25.535156 39.996094 25.691406 40.269531 25.871094 C 40.542969 26.054688 40.792969 26.261719 41.027344 26.496094 C 41.257812 26.726562 41.464844 26.976562 41.648438 27.25 C 41.828125 27.523438 41.984375 27.8125 42.109375 28.113281 C 42.234375 28.417969 42.328125 28.730469 42.394531 29.050781 C 42.457031 29.375 42.488281 29.699219 42.488281 30.027344 Z M 42.488281 30.027344 " fill-opacity="1" fill-rule="nonzero"/><path fill="#ffffff" d="M 14.65625 30.027344 C 14.65625 30.355469 14.625 30.679688 14.558594 31 C 14.496094 31.324219 14.402344 31.636719 14.277344 31.9375 C 14.152344 32.242188 13.996094 32.527344 13.8125 32.800781 C 13.632812 33.074219 13.425781 33.328125 13.191406 33.558594 C 12.960938 33.789062 12.707031 33.996094 12.4375 34.179688 C 12.164062 34.363281 11.875 34.515625 11.574219 34.640625 C 11.269531 34.765625 10.957031 34.863281 10.636719 34.925781 C 10.3125 34.988281 9.988281 35.023438 9.660156 35.023438 C 9.332031 35.023438 9.007812 34.988281 8.6875 34.925781 C 8.363281 34.863281 8.050781 34.765625 7.75 34.640625 C 7.445312 34.515625 7.15625 34.363281 6.886719 34.179688 C 6.613281 33.996094 6.359375 33.789062 6.128906 33.558594 C 5.894531 33.328125 5.6875 33.074219 5.507812 32.800781 C 5.324219 32.527344 5.171875 32.242188 5.046875 31.9375 C 4.921875 31.636719 4.824219 31.324219 4.761719 31 C 4.695312 30.679688 4.664062 30.355469 4.664062 30.027344 C 4.664062 29.699219 4.695312 29.375 4.761719 29.050781 C 4.824219 28.730469 4.921875 28.417969 5.046875 28.113281 C 5.171875 27.8125 5.324219 27.523438 5.507812 27.25 C 5.6875 26.976562 5.894531 26.726562 6.128906 26.496094 C 6.359375 26.261719 6.613281 26.054688 6.886719 25.871094 C 7.15625 25.691406 7.445312 25.535156 7.75 25.410156 C 8.050781 25.285156 8.363281 25.191406 8.6875 25.128906 C 9.007812 25.0625 9.332031 25.03125 9.660156 25.03125 C 9.988281 25.03125 10.3125 25.0625 10.636719 25.128906 C 10.957031 25.191406 11.269531 25.285156 11.574219 25.410156 C 11.875 25.535156 12.164062 25.691406 12.4375 25.871094 C 12.707031 26.054688 12.960938 26.261719 13.191406 26.496094 C 13.425781 26.726562 13.632812 26.976562 13.8125 27.25 C 13.996094 27.523438 14.152344 27.8125 14.277344 28.113281 C 14.402344 28.417969 14.496094 28.730469 14.558594 29.050781 C 14.625 29.375 14.65625 29.699219 14.65625 30.027344 Z M 14.65625 30.027344 " fill-opacity="1" fill-rule="nonzero"/><g clip-path="url(#acb3ce0195)"><path fill="#ffffff" d="M 23.507812 33.023438 C 16.34375 33.023438 10.519531 38.851562 10.519531 46.011719 C 10.519531 46.5625 10.964844 47.011719 11.515625 47.011719 L 35.496094 47.011719 C 36.046875 47.011719 36.496094 46.5625 36.496094 46.011719 C 36.496094 38.851562 30.667969 33.023438 23.507812 33.023438 Z M 23.507812 33.023438 " fill-opacity="1" fill-rule="nonzero"/></g><g clip-path="url(#498cf69d47)"><path fill="#ffffff" d="M 11.382812 37.234375 C 10.773438 37.105469 10.148438 37.019531 9.519531 37.019531 C 4.5625 37.019531 0.527344 41.054688 0.527344 46.011719 C 0.527344 46.5625 0.972656 47.011719 1.527344 47.011719 L 8.703125 47.011719 C 8.589844 46.699219 8.519531 46.363281 8.519531 46.011719 C 8.519531 42.734375 9.589844 39.707031 11.382812 37.234375 Z M 11.382812 37.234375 " fill-opacity="1" fill-rule="nonzero"/></g><g clip-path="url(#1f8979eadd)"><path fill="#ffffff" d="M 37.492188 37.019531 C 36.863281 37.019531 36.242188 37.105469 35.628906 37.234375 C 37.421875 39.707031 38.492188 42.734375 38.492188 46.011719 C 38.492188 46.363281 38.421875 46.699219 38.308594 47.011719 L 45.488281 47.011719 C 46.039062 47.011719 46.484375 46.5625 46.484375 46.011719 C 46.484375 41.054688 42.453125 37.019531 37.492188 37.019531 Z M 37.492188 37.019531 " fill-opacity="1" fill-rule="nonzero"/></g></svg>