<svg xmlns="http://www.w3.org/2000/svg" xmlns:xlink="http://www.w3.org/1999/xlink" width="64" zoomAndPan="magnify" viewBox="0 0 48 48" height="64" preserveAspectRatio="xMidYMid meet" version="1.0"><defs><clipPath id="d6c4680fa0"><path d="M 9 0 L 47.507812 0 L 47.507812 36 L 9 36 Z M 9 0 " clip-rule="nonzero"/></clipPath><clipPath id="2af3bdd810"><path d="M 0.488281 3 L 42 3 L 42 44.082031 L 0.488281 44.082031 Z M 0.488281 3 " clip-rule="nonzero"/></clipPath></defs><g clip-path="url(#d6c4680fa0)"><path fill="#ffffff" d="M 9.542969 20.765625 C 9.59375 20.183594 9.835938 19.667969 10.191406 19.199219 C 11.453125 17.542969 14.277344 16.78125 16.253906 18.003906 C 17.417969 18.722656 18.351562 19.648438 19.128906 20.746094 C 19.773438 21.65625 20.355469 22.609375 20.984375 23.570312 C 21.421875 22.949219 21.863281 22.3125 22.316406 21.679688 C 26.207031 16.261719 30.480469 11.171875 35.4375 6.6875 C 38.480469 3.9375 41.96875 1.894531 45.722656 0.277344 C 46.371094 0 46.910156 0.105469 47.46875 0.667969 C 47.214844 0.90625 46.960938 1.140625 46.707031 1.378906 C 43.429688 4.476562 40.222656 7.644531 37.3125 11.085938 C 35.644531 13.058594 34.097656 15.128906 32.507812 17.164062 C 29.308594 21.261719 26.914062 25.871094 24.191406 30.273438 C 23.140625 31.972656 22.101562 33.679688 21.050781 35.378906 C 20.632812 36.054688 20.082031 36.046875 19.664062 35.355469 C 18.300781 33.117188 17.230469 30.734375 16.214844 28.324219 C 15.367188 26.3125 14.417969 24.347656 13.210938 22.519531 C 12.613281 21.613281 11.90625 20.871094 10.75 20.769531 C 10.359375 20.738281 9.964844 20.765625 9.542969 20.765625 Z M 9.542969 20.765625 " fill-opacity="1" fill-rule="nonzero"/></g><g clip-path="url(#2af3bdd810)"><path fill="#ffffff" d="M 38.980469 13.757812 L 35.792969 16.945312 C 36.714844 18.980469 37.222656 21.238281 37.222656 23.613281 C 37.222656 32.570312 29.964844 39.824219 21.011719 39.824219 C 12.058594 39.824219 4.800781 32.570312 4.800781 23.613281 C 4.800781 14.660156 12.058594 7.402344 21.011719 7.402344 C 23.25 7.402344 25.382812 7.855469 27.320312 8.675781 L 30.53125 5.464844 C 27.6875 3.96875 24.449219 3.121094 21.011719 3.121094 C 9.695312 3.121094 0.519531 12.296875 0.519531 23.613281 C 0.519531 34.929688 9.695312 44.105469 21.011719 44.105469 C 32.328125 44.105469 41.503906 34.929688 41.503906 23.613281 C 41.503906 20.042969 40.589844 16.679688 38.980469 13.757812 Z M 38.980469 13.757812 " fill-opacity="1" fill-rule="nonzero"/></g></svg>