<svg xmlns="http://www.w3.org/2000/svg" xmlns:xlink="http://www.w3.org/1999/xlink" width="64" zoomAndPan="magnify" viewBox="0 0 48 48" height="64" preserveAspectRatio="xMidYMid meet" version="1.0"><defs><clipPath id="6cbc15f608"><path d="M 1.945312 0 L 46.027344 0 L 46.027344 46.285156 L 1.945312 46.285156 Z M 1.945312 0 " clip-rule="nonzero"/></clipPath></defs><g clip-path="url(#6cbc15f608)"><path fill="#ffffff" d="M 38.082031 4.621094 L 35.941406 4.621094 L 35.941406 1.417969 C 35.941406 0.648438 35.3125 0.0273438 34.546875 0.0273438 C 33.777344 0.0273438 33.15625 0.652344 33.15625 1.417969 L 33.15625 4.625 L 14.039062 4.625 L 14.039062 1.417969 C 14.039062 0.648438 13.414062 0.0273438 12.648438 0.0273438 C 11.878906 0.0273438 11.257812 0.652344 11.257812 1.417969 L 11.257812 4.625 L 9.90625 4.625 C 5.511719 4.625 1.945312 8.1875 1.945312 12.585938 L 1.945312 38.195312 C 1.945312 42.589844 5.511719 46.15625 9.90625 46.15625 L 38.082031 46.15625 C 42.480469 46.15625 46.042969 42.589844 46.042969 38.195312 L 46.042969 12.585938 C 46.050781 8.1875 42.480469 4.621094 38.082031 4.621094 Z M 33.152344 6.089844 L 33.152344 8.984375 C 33.152344 9.753906 33.777344 10.375 34.542969 10.375 C 35.3125 10.375 35.933594 9.746094 35.933594 8.984375 L 35.933594 6.199219 C 36.824219 6.71875 37.429688 7.683594 37.429688 8.789062 C 37.429688 10.4375 36.089844 11.777344 34.441406 11.777344 C 32.789062 11.777344 31.449219 10.4375 31.449219 8.789062 C 31.460938 7.597656 32.152344 6.574219 33.152344 6.089844 Z M 11.253906 6.144531 L 11.253906 8.984375 C 11.253906 9.753906 11.878906 10.375 12.644531 10.375 C 13.414062 10.375 14.035156 9.746094 14.035156 8.984375 L 14.035156 6.144531 C 14.984375 6.644531 15.625 7.636719 15.625 8.78125 C 15.625 10.429688 14.285156 11.769531 12.636719 11.769531 C 10.988281 11.769531 9.648438 10.429688 9.648438 8.78125 C 9.660156 7.636719 10.308594 6.644531 11.253906 6.144531 Z M 43.261719 38.1875 C 43.261719 41.046875 40.941406 43.363281 38.089844 43.363281 L 9.90625 43.363281 C 7.050781 43.363281 4.734375 41.039062 4.734375 38.1875 L 4.734375 16.976562 L 43.261719 16.976562 Z M 43.261719 38.1875 " fill-opacity="1" fill-rule="nonzero"/></g><path fill="#ffffff" d="M 14.082031 25.007812 L 10.222656 25.007812 C 9.914062 25.007812 9.660156 24.753906 9.660156 24.445312 L 9.660156 20.589844 C 9.660156 20.277344 9.914062 20.023438 10.222656 20.023438 L 14.082031 20.023438 C 14.390625 20.023438 14.644531 20.277344 14.644531 20.589844 L 14.644531 24.445312 C 14.636719 24.753906 14.390625 25.007812 14.082031 25.007812 Z M 14.082031 25.007812 " fill-opacity="1" fill-rule="nonzero"/><path fill="#ffffff" d="M 14.082031 32.917969 L 10.222656 32.917969 C 9.914062 32.917969 9.660156 32.664062 9.660156 32.355469 L 9.660156 28.496094 C 9.660156 28.1875 9.914062 27.933594 10.222656 27.933594 L 14.082031 27.933594 C 14.390625 27.933594 14.644531 28.1875 14.644531 28.496094 L 14.644531 32.355469 C 14.636719 32.671875 14.390625 32.917969 14.082031 32.917969 Z M 14.082031 32.917969 " fill-opacity="1" fill-rule="nonzero"/><path fill="#ffffff" d="M 14.082031 40.832031 L 10.222656 40.832031 C 9.914062 40.832031 9.660156 40.578125 9.660156 40.269531 L 9.660156 36.414062 C 9.660156 36.101562 9.914062 35.847656 10.222656 35.847656 L 14.082031 35.847656 C 14.390625 35.847656 14.644531 36.101562 14.644531 36.414062 L 14.644531 40.273438 C 14.636719 40.578125 14.390625 40.832031 14.082031 40.832031 Z M 14.082031 40.832031 " fill-opacity="1" fill-rule="nonzero"/><path fill="#ffffff" d="M 21.988281 25.007812 L 18.132812 25.007812 C 17.820312 25.007812 17.570312 24.753906 17.570312 24.445312 L 17.570312 20.589844 C 17.570312 20.277344 17.820312 20.023438 18.132812 20.023438 L 21.988281 20.023438 C 22.300781 20.023438 22.550781 20.277344 22.550781 20.589844 L 22.550781 24.445312 C 22.550781 24.753906 22.300781 25.007812 21.988281 25.007812 Z M 21.988281 25.007812 " fill-opacity="1" fill-rule="nonzero"/><path fill="#ffffff" d="M 21.988281 32.917969 L 18.132812 32.917969 C 17.820312 32.917969 17.570312 32.664062 17.570312 32.355469 L 17.570312 28.496094 C 17.570312 28.1875 17.820312 27.933594 18.132812 27.933594 L 21.988281 27.933594 C 22.300781 27.933594 22.550781 28.1875 22.550781 28.496094 L 22.550781 32.355469 C 22.550781 32.671875 22.300781 32.917969 21.988281 32.917969 Z M 21.988281 32.917969 " fill-opacity="1" fill-rule="nonzero"/><path fill="#ffffff" d="M 21.988281 40.832031 L 18.132812 40.832031 C 17.820312 40.832031 17.570312 40.578125 17.570312 40.269531 L 17.570312 36.414062 C 17.570312 36.101562 17.820312 35.847656 18.132812 35.847656 L 21.988281 35.847656 C 22.300781 35.847656 22.550781 36.101562 22.550781 36.414062 L 22.550781 40.273438 C 22.550781 40.578125 22.300781 40.832031 21.988281 40.832031 Z M 21.988281 40.832031 " fill-opacity="1" fill-rule="nonzero"/><path fill="#ffffff" d="M 29.90625 25.007812 L 26.046875 25.007812 C 25.738281 25.007812 25.484375 24.753906 25.484375 24.445312 L 25.484375 20.589844 C 25.484375 20.277344 25.738281 20.023438 26.046875 20.023438 L 29.90625 20.023438 C 30.214844 20.023438 30.46875 20.277344 30.46875 20.589844 L 30.46875 24.445312 C 30.460938 24.753906 30.214844 25.007812 29.90625 25.007812 Z M 29.90625 25.007812 " fill-opacity="1" fill-rule="nonzero"/><path fill="#ffffff" d="M 29.90625 32.917969 L 26.046875 32.917969 C 25.738281 32.917969 25.484375 32.664062 25.484375 32.355469 L 25.484375 28.496094 C 25.484375 28.1875 25.738281 27.933594 26.046875 27.933594 L 29.90625 27.933594 C 30.214844 27.933594 30.46875 28.1875 30.46875 28.496094 L 30.46875 32.355469 C 30.460938 32.671875 30.214844 32.917969 29.90625 32.917969 Z M 29.90625 32.917969 " fill-opacity="1" fill-rule="nonzero"/><path fill="#ffffff" d="M 29.90625 40.832031 L 26.046875 40.832031 C 25.738281 40.832031 25.484375 40.578125 25.484375 40.269531 L 25.484375 36.414062 C 25.484375 36.101562 25.738281 35.847656 26.046875 35.847656 L 29.90625 35.847656 C 30.214844 35.847656 30.46875 36.101562 30.46875 36.414062 L 30.46875 40.273438 C 30.460938 40.578125 30.214844 40.832031 29.90625 40.832031 Z M 29.90625 40.832031 " fill-opacity="1" fill-rule="nonzero"/><path fill="#ffffff" d="M 37.820312 25.007812 L 33.960938 25.007812 C 33.652344 25.007812 33.398438 24.753906 33.398438 24.445312 L 33.398438 20.589844 C 33.398438 20.277344 33.652344 20.023438 33.960938 20.023438 L 37.820312 20.023438 C 38.128906 20.023438 38.382812 20.277344 38.382812 20.589844 L 38.382812 24.445312 C 38.378906 24.753906 38.125 25.007812 37.820312 25.007812 Z M 37.820312 25.007812 " fill-opacity="1" fill-rule="nonzero"/><path fill="#ffffff" d="M 37.820312 32.917969 L 33.960938 32.917969 C 33.652344 32.917969 33.398438 32.664062 33.398438 32.355469 L 33.398438 28.496094 C 33.398438 28.1875 33.652344 27.933594 33.960938 27.933594 L 37.820312 27.933594 C 38.128906 27.933594 38.382812 28.1875 38.382812 28.496094 L 38.382812 32.355469 C 38.378906 32.671875 38.125 32.917969 37.820312 32.917969 Z M 37.820312 32.917969 " fill-opacity="1" fill-rule="nonzero"/></svg>