<svg xmlns="http://www.w3.org/2000/svg" xmlns:xlink="http://www.w3.org/1999/xlink" width="64" zoomAndPan="magnify" viewBox="0 0 48 48" height="64" preserveAspectRatio="xMidYMid meet" version="1.0"><defs><clipPath id="0ad9f7b13e"><path d="M 3.546875 0 L 44.6875 0 L 44.6875 47.019531 L 3.546875 47.019531 Z M 3.546875 0 " clip-rule="nonzero"/></clipPath></defs><g clip-path="url(#0ad9f7b13e)"><path fill="#ffffff" d="M 29.433594 23.246094 C 29.84375 23.042969 30.242188 22.816406 30.628906 22.570312 C 31.011719 22.320312 31.382812 22.054688 31.738281 21.765625 C 32.09375 21.476562 32.429688 21.167969 32.75 20.84375 C 33.070312 20.515625 33.371094 20.171875 33.652344 19.8125 C 33.9375 19.453125 34.195312 19.078125 34.4375 18.6875 C 34.675781 18.300781 34.894531 17.898438 35.089844 17.484375 C 35.285156 17.070312 35.457031 16.648438 35.605469 16.214844 C 35.753906 15.78125 35.875 15.34375 35.972656 14.894531 C 36.074219 14.449219 36.148438 13.996094 36.195312 13.542969 C 36.242188 13.089844 36.265625 12.632812 36.261719 12.175781 C 36.261719 11.71875 36.230469 11.261719 36.179688 10.808594 C 36.125 10.351562 36.046875 9.902344 35.941406 9.457031 C 35.835938 9.011719 35.707031 8.574219 35.554688 8.140625 C 35.402344 7.710938 35.226562 7.289062 35.023438 6.878906 C 34.824219 6.46875 34.601562 6.070312 34.355469 5.683594 C 34.113281 5.296875 33.847656 4.925781 33.558594 4.566406 C 33.273438 4.210938 32.96875 3.871094 32.644531 3.550781 C 32.320312 3.226562 31.976562 2.921875 31.621094 2.640625 C 31.261719 2.355469 30.886719 2.089844 30.5 1.847656 C 30.113281 1.605469 29.710938 1.386719 29.300781 1.1875 C 28.886719 0.992188 28.464844 0.816406 28.03125 0.667969 C 27.601562 0.515625 27.160156 0.390625 26.714844 0.289062 C 26.269531 0.1875 25.820312 0.109375 25.363281 0.0585938 C 24.910156 0.0078125 24.453125 -0.015625 23.996094 -0.015625 C 23.539062 -0.015625 23.082031 0.0078125 22.628906 0.0585938 C 22.175781 0.109375 21.722656 0.1875 21.277344 0.289062 C 20.832031 0.390625 20.394531 0.515625 19.960938 0.667969 C 19.527344 0.816406 19.105469 0.992188 18.695312 1.1875 C 18.28125 1.386719 17.882812 1.605469 17.492188 1.847656 C 17.105469 2.089844 16.734375 2.355469 16.375 2.640625 C 16.015625 2.921875 15.675781 3.226562 15.351562 3.550781 C 15.027344 3.871094 14.71875 4.210938 14.433594 4.566406 C 14.148438 4.925781 13.882812 5.296875 13.636719 5.683594 C 13.390625 6.070312 13.167969 6.46875 12.96875 6.878906 C 12.769531 7.289062 12.59375 7.710938 12.4375 8.140625 C 12.285156 8.574219 12.15625 9.011719 12.054688 9.457031 C 11.949219 9.902344 11.871094 10.351562 11.816406 10.808594 C 11.761719 11.261719 11.734375 11.71875 11.730469 12.175781 C 11.726562 12.632812 11.75 13.089844 11.800781 13.542969 C 11.847656 13.996094 11.921875 14.449219 12.019531 14.894531 C 12.117188 15.34375 12.242188 15.78125 12.390625 16.214844 C 12.539062 16.648438 12.707031 17.070312 12.902344 17.484375 C 13.097656 17.898438 13.316406 18.300781 13.558594 18.6875 C 13.796875 19.078125 14.058594 19.453125 14.339844 19.8125 C 14.621094 20.171875 14.921875 20.515625 15.242188 20.84375 C 15.566406 21.167969 15.902344 21.476562 16.257812 21.765625 C 16.613281 22.054688 16.980469 22.320312 17.367188 22.570312 C 17.75 22.816406 18.148438 23.042969 18.558594 23.246094 C 17.488281 23.539062 16.449219 23.917969 15.441406 24.382812 C 14.433594 24.847656 13.46875 25.390625 12.546875 26.015625 C 11.628906 26.636719 10.765625 27.328125 9.957031 28.089844 C 9.152344 28.851562 8.410156 29.675781 7.738281 30.558594 C 7.066406 31.441406 6.46875 32.375 5.945312 33.355469 C 5.425781 34.335938 4.988281 35.351562 4.632812 36.402344 C 4.273438 37.453125 4.007812 38.527344 3.824219 39.621094 C 3.644531 40.71875 3.554688 41.820312 3.554688 42.933594 L 3.554688 44.976562 C 3.554688 45.246094 3.605469 45.507812 3.707031 45.757812 C 3.8125 46.007812 3.960938 46.230469 4.152344 46.421875 C 4.34375 46.613281 4.566406 46.761719 4.816406 46.863281 C 5.066406 46.96875 5.328125 47.019531 5.597656 47.019531 L 42.394531 47.019531 C 42.667969 47.019531 42.929688 46.96875 43.179688 46.863281 C 43.429688 46.761719 43.648438 46.613281 43.84375 46.421875 C 44.035156 46.230469 44.179688 46.007812 44.285156 45.757812 C 44.390625 45.507812 44.441406 45.246094 44.441406 44.976562 L 44.441406 42.933594 C 44.441406 41.820312 44.347656 40.71875 44.167969 39.621094 C 43.988281 38.527344 43.71875 37.453125 43.363281 36.402344 C 43.007812 35.351562 42.570312 34.335938 42.046875 33.355469 C 41.527344 32.375 40.929688 31.441406 40.257812 30.558594 C 39.582031 29.675781 38.84375 28.851562 38.035156 28.089844 C 37.230469 27.328125 36.367188 26.636719 35.445312 26.015625 C 34.527344 25.390625 33.5625 24.847656 32.554688 24.382812 C 31.542969 23.917969 30.503906 23.539062 29.433594 23.246094 Z M 29.433594 23.246094 " fill-opacity="1" fill-rule="nonzero"/></g></svg>