<svg xmlns="http://www.w3.org/2000/svg" xmlns:xlink="http://www.w3.org/1999/xlink" width="64" zoomAndPan="magnify" viewBox="0 0 48 48" height="64" preserveAspectRatio="xMidYMid meet" version="1.0"><defs><clipPath id="e126931aae"><path d="M 0.488281 5.40625 L 47.507812 5.40625 L 47.507812 41.40625 L 0.488281 41.40625 Z M 0.488281 5.40625 " clip-rule="nonzero"/></clipPath></defs><g clip-path="url(#e126931aae)"><path fill="#ffffff" d="M 47.476562 12.054688 L 47.476562 16.902344 L 0.523438 16.902344 L 0.523438 12.054688 C 0.523438 8.359375 3.53125 5.351562 7.214844 5.351562 L 40.785156 5.351562 C 44.46875 5.351562 47.476562 8.359375 47.476562 12.054688 Z M 0.523438 19.128906 L 47.476562 19.128906 L 47.476562 34.84375 C 47.476562 38.539062 44.46875 41.546875 40.785156 41.546875 L 7.214844 41.546875 C 3.53125 41.546875 0.523438 38.539062 0.523438 34.84375 Z M 30.082031 34.921875 L 40.371094 34.921875 L 40.371094 32.691406 L 30.082031 32.691406 Z M 30.082031 34.921875 " fill-opacity="1" fill-rule="nonzero"/></g></svg>