<svg xmlns="http://www.w3.org/2000/svg" xmlns:xlink="http://www.w3.org/1999/xlink" width="64" zoomAndPan="magnify" viewBox="0 0 48 48" height="64" preserveAspectRatio="xMidYMid meet" version="1.0"><defs><clipPath id="3efa925a8d"><path d="M 14 28 L 34 28 L 34 45.167969 L 14 45.167969 Z M 14 28 " clip-rule="nonzero"/></clipPath><clipPath id="9e1f98516d"><path d="M 0.488281 12 L 47.507812 12 L 47.507812 38 L 0.488281 38 Z M 0.488281 12 " clip-rule="nonzero"/></clipPath><clipPath id="85531598ac"><path d="M 11 1.820312 L 37 1.820312 L 37 11 L 11 11 Z M 11 1.820312 " clip-rule="nonzero"/></clipPath></defs><g clip-path="url(#3efa925a8d)"><path fill="#ffffff" d="M 14.964844 28.929688 L 14.964844 43.386719 C 14.964844 43.625 15.011719 43.855469 15.101562 44.078125 C 15.195312 44.296875 15.324219 44.492188 15.492188 44.664062 C 15.664062 44.832031 15.859375 44.960938 16.082031 45.054688 C 16.300781 45.144531 16.53125 45.191406 16.773438 45.191406 L 31.226562 45.191406 C 31.46875 45.191406 31.699219 45.144531 31.917969 45.054688 C 32.140625 44.960938 32.335938 44.832031 32.507812 44.664062 C 32.675781 44.492188 32.804688 44.296875 32.898438 44.078125 C 32.988281 43.855469 33.035156 43.625 33.035156 43.386719 L 33.035156 28.929688 Z M 27.613281 41.578125 L 20.386719 41.578125 C 20.144531 41.578125 19.914062 41.53125 19.695312 41.441406 C 19.472656 41.347656 19.277344 41.21875 19.109375 41.046875 C 18.9375 40.878906 18.808594 40.683594 18.714844 40.460938 C 18.625 40.242188 18.578125 40.011719 18.578125 39.769531 C 18.578125 39.53125 18.625 39.300781 18.714844 39.078125 C 18.808594 38.859375 18.9375 38.664062 19.109375 38.492188 C 19.277344 38.324219 19.472656 38.191406 19.695312 38.101562 C 19.914062 38.007812 20.144531 37.964844 20.386719 37.964844 L 27.613281 37.964844 C 27.855469 37.964844 28.085938 38.007812 28.304688 38.101562 C 28.527344 38.191406 28.722656 38.324219 28.890625 38.492188 C 29.0625 38.664062 29.191406 38.859375 29.285156 39.078125 C 29.375 39.300781 29.421875 39.53125 29.421875 39.769531 C 29.421875 40.011719 29.375 40.242188 29.285156 40.460938 C 29.191406 40.683594 29.0625 40.878906 28.890625 41.046875 C 28.722656 41.21875 28.527344 41.347656 28.304688 41.441406 C 28.085938 41.53125 27.855469 41.578125 27.613281 41.578125 Z M 27.613281 36.15625 L 20.386719 36.15625 C 20.144531 36.15625 19.914062 36.109375 19.695312 36.019531 C 19.472656 35.925781 19.277344 35.796875 19.109375 35.628906 C 18.9375 35.457031 18.808594 35.261719 18.714844 35.039062 C 18.625 34.820312 18.578125 34.589844 18.578125 34.347656 C 18.578125 34.109375 18.625 33.878906 18.714844 33.65625 C 18.808594 33.4375 18.9375 33.242188 19.109375 33.070312 C 19.277344 32.902344 19.472656 32.773438 19.695312 32.679688 C 19.914062 32.589844 20.144531 32.542969 20.386719 32.542969 L 27.613281 32.542969 C 27.855469 32.542969 28.085938 32.589844 28.304688 32.679688 C 28.527344 32.773438 28.722656 32.902344 28.890625 33.070312 C 29.0625 33.242188 29.191406 33.4375 29.285156 33.65625 C 29.375 33.878906 29.421875 34.109375 29.421875 34.347656 C 29.421875 34.589844 29.375 34.820312 29.285156 35.039062 C 29.191406 35.261719 29.0625 35.457031 28.890625 35.628906 C 28.722656 35.796875 28.527344 35.925781 28.304688 36.019531 C 28.085938 36.109375 27.855469 36.15625 27.613281 36.15625 Z M 27.613281 36.15625 " fill-opacity="1" fill-rule="nonzero"/></g><g clip-path="url(#9e1f98516d)"><path fill="#ffffff" d="M 42.070312 12.664062 L 5.929688 12.664062 C 5.574219 12.664062 5.21875 12.699219 4.871094 12.765625 C 4.523438 12.835938 4.183594 12.9375 3.851562 13.074219 C 3.523438 13.210938 3.210938 13.378906 2.914062 13.574219 C 2.621094 13.773438 2.34375 14 2.09375 14.25 C 1.84375 14.503906 1.617188 14.777344 1.417969 15.070312 C 1.222656 15.367188 1.054688 15.679688 0.917969 16.011719 C 0.78125 16.339844 0.679688 16.679688 0.609375 17.027344 C 0.542969 17.375 0.507812 17.730469 0.507812 18.085938 L 0.507812 32.542969 C 0.507812 32.898438 0.542969 33.25 0.613281 33.597656 C 0.683594 33.949219 0.789062 34.285156 0.925781 34.613281 C 1.0625 34.941406 1.230469 35.253906 1.425781 35.550781 C 1.625 35.847656 1.847656 36.121094 2.101562 36.371094 C 2.351562 36.621094 2.625 36.847656 2.921875 37.046875 C 3.214844 37.242188 3.527344 37.410156 3.855469 37.546875 C 4.183594 37.683594 4.523438 37.785156 4.871094 37.855469 C 5.222656 37.925781 5.574219 37.960938 5.929688 37.964844 L 11.351562 37.964844 L 11.351562 27.121094 C 11.351562 26.882812 11.398438 26.652344 11.488281 26.429688 C 11.582031 26.210938 11.710938 26.015625 11.882812 25.84375 C 12.050781 25.675781 12.246094 25.546875 12.464844 25.453125 C 12.6875 25.359375 12.917969 25.316406 13.15625 25.3125 L 34.84375 25.3125 C 35.082031 25.316406 35.3125 25.359375 35.53125 25.453125 C 35.753906 25.546875 35.949219 25.675781 36.117188 25.84375 C 36.289062 26.015625 36.417969 26.210938 36.511719 26.429688 C 36.601562 26.652344 36.648438 26.882812 36.648438 27.121094 L 36.648438 37.964844 L 42.070312 37.964844 C 42.425781 37.960938 42.777344 37.925781 43.128906 37.855469 C 43.476562 37.785156 43.816406 37.683594 44.144531 37.546875 C 44.472656 37.410156 44.785156 37.242188 45.078125 37.046875 C 45.375 36.847656 45.648438 36.621094 45.898438 36.371094 C 46.152344 36.121094 46.375 35.847656 46.574219 35.550781 C 46.769531 35.253906 46.9375 34.941406 47.074219 34.613281 C 47.210938 34.285156 47.316406 33.949219 47.386719 33.597656 C 47.457031 33.25 47.492188 32.898438 47.492188 32.542969 L 47.492188 18.085938 C 47.492188 17.730469 47.457031 17.375 47.390625 17.027344 C 47.320312 16.679688 47.21875 16.339844 47.082031 16.011719 C 46.945312 15.679688 46.777344 15.367188 46.582031 15.070312 C 46.382812 14.777344 46.15625 14.503906 45.90625 14.25 C 45.65625 14 45.378906 13.773438 45.085938 13.574219 C 44.789062 13.378906 44.476562 13.210938 44.148438 13.074219 C 43.816406 12.9375 43.476562 12.835938 43.128906 12.765625 C 42.78125 12.699219 42.425781 12.664062 42.070312 12.664062 Z M 38.457031 21.699219 C 38.214844 21.703125 37.984375 21.660156 37.761719 21.566406 C 37.539062 21.476562 37.34375 21.347656 37.171875 21.175781 C 37.003906 21.007812 36.871094 20.808594 36.78125 20.585938 C 36.691406 20.363281 36.648438 20.132812 36.648438 19.894531 C 36.648438 19.652344 36.695312 19.421875 36.785156 19.203125 C 36.878906 18.980469 37.007812 18.785156 37.179688 18.613281 C 37.347656 18.445312 37.542969 18.316406 37.765625 18.222656 C 37.988281 18.132812 38.21875 18.085938 38.457031 18.085938 C 38.695312 18.085938 38.925781 18.132812 39.148438 18.222656 C 39.371094 18.316406 39.566406 18.445312 39.734375 18.613281 C 39.902344 18.785156 40.035156 18.980469 40.125 19.203125 C 40.21875 19.421875 40.265625 19.652344 40.265625 19.894531 C 40.265625 20.132812 40.21875 20.363281 40.125 20.585938 C 40.035156 20.804688 39.902344 21 39.734375 21.171875 C 39.566406 21.339844 39.371094 21.46875 39.148438 21.5625 C 38.925781 21.652344 38.695312 21.699219 38.457031 21.699219 Z M 38.457031 21.699219 " fill-opacity="1" fill-rule="nonzero"/></g><g clip-path="url(#85531598ac)"><path fill="#ffffff" d="M 36.648438 3.628906 L 36.648438 10.859375 L 11.351562 10.859375 L 11.351562 3.628906 C 11.351562 3.390625 11.398438 3.160156 11.488281 2.9375 C 11.582031 2.71875 11.710938 2.523438 11.882812 2.351562 C 12.050781 2.183594 12.246094 2.054688 12.464844 1.960938 C 12.6875 1.867188 12.917969 1.824219 13.15625 1.820312 L 34.84375 1.820312 C 35.082031 1.824219 35.3125 1.867188 35.53125 1.960938 C 35.753906 2.054688 35.949219 2.183594 36.117188 2.351562 C 36.289062 2.523438 36.417969 2.71875 36.511719 2.9375 C 36.601562 3.160156 36.648438 3.390625 36.648438 3.628906 Z M 36.648438 3.628906 " fill-opacity="1" fill-rule="nonzero"/></g></svg>