<svg xmlns="http://www.w3.org/2000/svg" xmlns:xlink="http://www.w3.org/1999/xlink" width="64" zoomAndPan="magnify" viewBox="0 0 48 48" height="64" preserveAspectRatio="xMidYMid meet" version="1.0"><defs><clipPath id="77c4300444"><path d="M 30 0 L 47.507812 0 L 47.507812 18 L 30 18 Z M 30 0 " clip-rule="nonzero"/></clipPath><clipPath id="0fc1377468"><path d="M 0.488281 7 L 41 7 L 41 47.019531 L 0.488281 47.019531 Z M 0.488281 7 " clip-rule="nonzero"/></clipPath></defs><g clip-path="url(#77c4300444)"><path fill="#ffffff" d="M 38.820312 0 C 34.496094 0 30.917969 3.128906 30.242188 7.226562 C 30.152344 7.699219 30.105469 8.195312 30.105469 8.691406 C 30.105469 13.507812 34 17.40625 38.820312 17.40625 C 39.316406 17.40625 39.808594 17.359375 40.28125 17.269531 C 44.378906 16.59375 47.511719 13.015625 47.511719 8.691406 C 47.511719 3.894531 43.617188 0 38.820312 0 Z M 41.710938 10.363281 L 39.988281 8.640625 L 39.988281 13.265625 L 37.636719 13.265625 L 37.636719 8.636719 L 35.90625 10.363281 L 34.246094 8.699219 L 38.8125 4.136719 L 43.375 8.699219 Z M 41.710938 10.363281 " fill-opacity="1" fill-rule="nonzero"/></g><g clip-path="url(#0fc1377468)"><path fill="#ffffff" d="M 40.03125 20.863281 C 39.808594 20.886719 39.578125 20.898438 39.34375 20.90625 C 39.167969 20.914062 39 20.941406 38.820312 20.941406 C 32.070312 20.941406 26.570312 15.4375 26.570312 8.691406 C 26.570312 8.195312 26.59375 7.703125 26.6875 7.230469 L 8.4375 7.230469 C 4.039062 7.230469 0.488281 10.78125 0.488281 15.179688 L 0.488281 39.070312 C 0.488281 43.46875 4.039062 47.019531 8.4375 47.019531 L 32.332031 47.019531 C 36.726562 47.019531 40.277344 43.46875 40.277344 39.070312 L 40.277344 20.847656 C 40.199219 20.859375 40.113281 20.855469 40.03125 20.863281 Z M 28.617188 28.890625 L 22.148438 28.890625 L 22.148438 35.355469 L 18.621094 35.355469 L 18.621094 28.890625 L 12.152344 28.890625 L 12.152344 25.363281 L 18.621094 25.363281 L 18.621094 18.894531 L 22.148438 18.894531 L 22.148438 25.363281 L 28.617188 25.363281 Z M 28.617188 28.890625 " fill-opacity="1" fill-rule="nonzero"/></g></svg>