<svg xmlns="http://www.w3.org/2000/svg" xmlns:xlink="http://www.w3.org/1999/xlink" width="64" zoomAndPan="magnify" viewBox="0 0 48 48" height="64" preserveAspectRatio="xMidYMid meet" version="1.0"><defs><clipPath id="32df27327f"><path d="M 3.191406 0 L 45 0 L 45 46.285156 L 3.191406 46.285156 Z M 3.191406 0 " clip-rule="nonzero"/></clipPath></defs><g clip-path="url(#32df27327f)"><path fill="#ffffff" d="M 30.992188 19.089844 C 23.472656 19.089844 17.359375 25.207031 17.359375 32.722656 C 17.359375 40.242188 23.472656 46.359375 30.992188 46.359375 C 38.511719 46.359375 44.628906 40.242188 44.628906 32.722656 C 44.628906 25.207031 38.511719 19.089844 30.992188 19.089844 Z M 35.628906 34.503906 L 30.992188 34.503906 C 30.011719 34.503906 29.214844 33.707031 29.214844 32.722656 L 29.214844 27.898438 C 29.214844 26.917969 30.011719 26.121094 30.992188 26.121094 C 31.972656 26.121094 32.769531 26.917969 32.769531 27.898438 L 32.769531 30.945312 L 35.628906 30.945312 C 36.609375 30.945312 37.40625 31.742188 37.40625 32.722656 C 37.40625 33.707031 36.609375 34.503906 35.628906 34.503906 Z M 33.363281 0.117188 L 9.652344 0.117188 C 6.046875 0.117188 3.128906 3.035156 3.128906 6.640625 L 3.128906 37.464844 C 3.128906 41.070312 6.046875 43.988281 9.652344 43.988281 L 18.046875 43.988281 C 15.390625 40.976562 13.800781 37.039062 13.800781 32.722656 C 13.800781 23.238281 21.507812 15.53125 30.992188 15.53125 C 34.265625 15.53125 37.300781 16.433594 39.882812 18.046875 L 39.882812 6.640625 C 39.882812 3.035156 36.96875 0.117188 33.363281 0.117188 Z M 14.394531 25.015625 L 12.023438 25.015625 C 11.050781 25.015625 10.242188 24.210938 10.242188 23.238281 C 10.242188 22.265625 11.050781 21.460938 12.023438 21.460938 L 14.394531 21.460938 C 15.367188 21.460938 16.171875 22.265625 16.171875 23.238281 C 16.171875 24.210938 15.367188 25.015625 14.394531 25.015625 Z M 21.507812 17.902344 L 12.023438 17.902344 C 11.050781 17.902344 10.242188 17.097656 10.242188 16.125 C 10.242188 15.152344 11.050781 14.347656 12.023438 14.347656 L 21.507812 14.347656 C 22.480469 14.347656 23.285156 15.152344 23.285156 16.125 C 23.285156 17.097656 22.480469 17.902344 21.507812 17.902344 Z M 30.992188 10.789062 L 12.023438 10.789062 C 11.050781 10.789062 10.242188 9.984375 10.242188 9.011719 C 10.242188 8.039062 11.050781 7.230469 12.023438 7.230469 L 30.992188 7.230469 C 31.964844 7.230469 32.769531 8.039062 32.769531 9.011719 C 32.769531 9.984375 31.964844 10.789062 30.992188 10.789062 Z M 30.992188 10.789062 " fill-opacity="1" fill-rule="nonzero"/></g></svg>