<svg xmlns="http://www.w3.org/2000/svg" xmlns:xlink="http://www.w3.org/1999/xlink" width="64" zoomAndPan="magnify" viewBox="0 0 48 48" height="64" preserveAspectRatio="xMidYMid meet" version="1.0"><defs><clipPath id="b7f112020c"><path d="M 1.53125 1.039062 L 46.34375 1.039062 L 46.34375 45.855469 L 1.53125 45.855469 Z M 1.53125 1.039062 " clip-rule="nonzero"/></clipPath></defs><g clip-path="url(#b7f112020c)"><path fill="#ffffff" d="M 8.046875 7.660156 C 12.460938 3.246094 17.777344 1.039062 23.996094 1.039062 C 30.214844 1.039062 35.511719 3.230469 39.890625 7.609375 C 44.269531 11.988281 46.460938 17.285156 46.460938 23.503906 C 46.460938 29.722656 44.269531 35.023438 39.890625 39.402344 C 35.511719 43.78125 30.214844 45.96875 23.996094 45.96875 C 17.777344 45.96875 12.476562 43.78125 8.097656 39.402344 C 3.71875 35.023438 1.53125 29.722656 1.53125 23.503906 C 1.53125 17.285156 3.703125 12.003906 8.046875 7.660156 Z M 26 33.835938 C 26.066406 32.964844 25.816406 32.230469 25.25 31.628906 C 24.679688 31.027344 23.960938 30.726562 23.09375 30.726562 C 22.289062 30.726562 21.585938 30.992188 20.984375 31.527344 C 20.382812 32.0625 20.082031 32.765625 20.082031 33.632812 C 20.082031 34.503906 20.351562 35.222656 20.886719 35.789062 C 21.421875 36.359375 22.089844 36.644531 22.890625 36.644531 C 23.761719 36.644531 24.496094 36.394531 25.097656 35.890625 C 25.699219 35.390625 26 34.703125 26 33.835938 Z M 30.914062 20.996094 C 31.71875 19.859375 32.117188 18.65625 32.117188 17.386719 C 32.117188 15.179688 31.28125 13.441406 29.609375 12.171875 C 28.007812 10.96875 25.933594 10.367188 23.394531 10.367188 C 21.519531 10.367188 19.949219 10.800781 18.679688 11.671875 C 16.808594 12.941406 15.871094 15.214844 15.871094 18.492188 L 20.785156 18.492188 C 20.785156 17.085938 20.917969 16.183594 21.1875 15.78125 C 21.789062 14.78125 22.65625 14.277344 23.792969 14.277344 C 24.929688 14.277344 25.765625 14.644531 26.300781 15.382812 C 26.835938 16.117188 27.105469 16.886719 27.105469 17.6875 C 27.105469 18.222656 26.835938 18.890625 26.300781 19.695312 C 26.167969 19.960938 25.832031 20.296875 25.296875 20.695312 C 23.558594 21.699219 22.390625 22.703125 21.789062 23.707031 C 21.253906 24.574219 20.917969 25.945312 20.785156 27.816406 C 20.785156 28.085938 20.917969 28.21875 21.1875 28.21875 L 25.097656 28.21875 C 25.433594 28.21875 25.597656 28.085938 25.597656 27.816406 C 25.597656 27.082031 25.667969 26.445312 25.800781 25.914062 C 26 25.308594 26.402344 24.742188 27.003906 24.207031 L 28.40625 23.304688 C 29.679688 22.367188 30.515625 21.597656 30.914062 20.996094 Z M 30.914062 20.996094 " fill-opacity="1" fill-rule="nonzero"/></g></svg>