<svg xmlns="http://www.w3.org/2000/svg" xmlns:xlink="http://www.w3.org/1999/xlink" width="64" zoomAndPan="magnify" viewBox="0 0 48 48" height="64" preserveAspectRatio="xMidYMid meet" version="1.0"><defs><clipPath id="922173df05"><path d="M 5.191406 0 L 44.867188 0 L 44.867188 46.285156 L 5.191406 46.285156 Z M 5.191406 0 " clip-rule="nonzero"/></clipPath></defs><g clip-path="url(#922173df05)"><path fill="#ffffff" d="M 10.300781 46.113281 L 31.710938 46.113281 C 32.144531 46.113281 32.574219 46.070312 32.996094 45.988281 C 33.421875 45.902344 33.832031 45.777344 34.234375 45.613281 C 34.632812 45.445312 35.011719 45.242188 35.371094 45.003906 C 35.730469 44.761719 36.0625 44.488281 36.371094 44.183594 C 36.675781 43.878906 36.949219 43.546875 37.1875 43.1875 C 37.429688 42.824219 37.632812 42.445312 37.796875 42.046875 C 37.964844 41.648438 38.089844 41.234375 38.171875 40.8125 C 38.257812 40.386719 38.300781 39.957031 38.300781 39.527344 L 38.300781 31.242188 L 36.652344 32.1875 C 36.140625 32.484375 35.589844 32.683594 35.003906 32.78125 L 35.003906 39.527344 C 35.003906 39.960938 34.921875 40.382812 34.753906 40.785156 C 34.589844 41.191406 34.351562 41.546875 34.042969 41.855469 C 33.730469 42.164062 33.375 42.402344 32.972656 42.570312 C 32.570312 42.734375 32.148438 42.820312 31.710938 42.820312 L 24.300781 42.820312 L 24.300781 24.703125 L 32.535156 24.703125 L 32.535156 27.914062 C 32.535156 28.058594 32.554688 28.203125 32.59375 28.339844 C 32.628906 28.480469 32.683594 28.613281 32.757812 28.738281 C 32.828125 28.863281 32.917969 28.976562 33.019531 29.078125 C 33.121094 29.179688 33.234375 29.269531 33.359375 29.339844 C 33.484375 29.414062 33.617188 29.46875 33.757812 29.503906 C 33.894531 29.542969 34.039062 29.558594 34.183594 29.558594 C 34.328125 29.558594 34.46875 29.542969 34.609375 29.503906 C 34.75 29.464844 34.878906 29.410156 35.003906 29.339844 L 43.71875 24.308594 C 43.84375 24.234375 43.957031 24.148438 44.058594 24.046875 C 44.160156 23.945312 44.246094 23.832031 44.320312 23.707031 C 44.390625 23.582031 44.445312 23.449219 44.484375 23.308594 C 44.519531 23.167969 44.539062 23.027344 44.539062 22.882812 C 44.539062 22.738281 44.519531 22.597656 44.484375 22.457031 C 44.445312 22.320312 44.390625 22.1875 44.320312 22.0625 C 44.246094 21.9375 44.160156 21.824219 44.058594 21.722656 C 43.957031 21.617188 43.84375 21.53125 43.71875 21.460938 L 35.003906 16.46875 C 34.878906 16.398438 34.75 16.34375 34.609375 16.304688 C 34.46875 16.265625 34.328125 16.25 34.183594 16.25 C 34.039062 16.25 33.894531 16.265625 33.757812 16.304688 C 33.617188 16.339844 33.484375 16.398438 33.359375 16.46875 C 33.234375 16.539062 33.121094 16.628906 33.019531 16.730469 C 32.917969 16.832031 32.828125 16.945312 32.757812 17.070312 C 32.683594 17.195312 32.628906 17.328125 32.59375 17.46875 C 32.554688 17.605469 32.535156 17.75 32.535156 17.894531 L 32.535156 21.410156 L 24.300781 21.410156 L 24.300781 11.132812 C 24.300781 10.5 24.132812 9.914062 23.796875 9.375 C 23.457031 8.839844 23.003906 8.433594 22.433594 8.160156 L 12.773438 3.523438 C 12.570312 3.433594 12.367188 3.359375 12.15625 3.292969 L 31.710938 3.292969 C 32.148438 3.292969 32.570312 3.378906 32.972656 3.542969 C 33.375 3.710938 33.730469 3.949219 34.042969 4.257812 C 34.351562 4.566406 34.589844 4.921875 34.753906 5.328125 C 34.921875 5.730469 35.003906 6.152344 35.003906 6.585938 L 35.003906 12.984375 C 35.589844 13.085938 36.140625 13.28125 36.652344 13.578125 L 38.300781 14.527344 L 38.300781 6.585938 C 38.300781 6.15625 38.257812 5.726562 38.171875 5.300781 C 38.089844 4.878906 37.964844 4.464844 37.796875 4.066406 C 37.632812 3.667969 37.429688 3.289062 37.1875 2.929688 C 36.949219 2.566406 36.675781 2.234375 36.371094 1.929688 C 36.0625 1.625 35.730469 1.351562 35.371094 1.109375 C 35.011719 0.871094 34.632812 0.667969 34.234375 0.5 C 33.832031 0.335938 33.421875 0.210938 32.996094 0.125 C 32.574219 0.0429688 32.144531 0 31.710938 0 L 11.949219 0 C 11.515625 0 11.089844 0.0429688 10.664062 0.125 C 10.238281 0.210938 9.828125 0.335938 9.429688 0.5 C 9.027344 0.667969 8.648438 0.871094 8.289062 1.109375 C 7.929688 1.351562 7.597656 1.625 7.289062 1.929688 C 6.984375 2.234375 6.710938 2.566406 6.472656 2.929688 C 6.230469 3.289062 6.027344 3.667969 5.863281 4.066406 C 5.699219 4.464844 5.574219 4.878906 5.488281 5.300781 C 5.402344 5.726562 5.363281 6.15625 5.363281 6.585938 L 5.363281 41.171875 C 5.363281 41.496094 5.394531 41.820312 5.457031 42.136719 C 5.519531 42.453125 5.613281 42.765625 5.738281 43.0625 C 5.863281 43.363281 6.015625 43.648438 6.195312 43.917969 C 6.375 44.1875 6.578125 44.4375 6.808594 44.667969 C 7.039062 44.894531 7.289062 45.101562 7.558594 45.28125 C 7.828125 45.460938 8.113281 45.613281 8.410156 45.738281 C 8.710938 45.863281 9.019531 45.957031 9.339844 46.019531 C 9.65625 46.082031 9.976562 46.113281 10.300781 46.113281 Z M 10.300781 46.113281 " fill-opacity="1" fill-rule="nonzero"/></g></svg>