<svg xmlns="http://www.w3.org/2000/svg" xmlns:xlink="http://www.w3.org/1999/xlink" width="64" zoomAndPan="magnify" viewBox="0 0 48 48" height="64" preserveAspectRatio="xMidYMid meet" version="1.0"><defs><clipPath id="ff8a96d991"><path d="M 0.492188 0 L 47.386719 0 L 47.386719 47.019531 L 0.492188 47.019531 Z M 0.492188 0 " clip-rule="nonzero"/></clipPath></defs><g clip-path="url(#ff8a96d991)"><path fill="#ffffff" d="M 5.300781 18.460938 C 5.300781 10.933594 11.425781 4.808594 18.953125 4.808594 C 26.480469 4.808594 32.601562 10.933594 32.601562 18.460938 C 32.601562 25.988281 26.480469 32.109375 18.953125 32.109375 C 11.425781 32.109375 5.300781 25.988281 5.300781 18.460938 Z M 18.953125 0 C 8.773438 0 0.492188 8.28125 0.492188 18.460938 C 0.492188 28.640625 8.773438 36.917969 18.953125 36.917969 C 23.144531 36.917969 27.011719 35.511719 30.113281 33.148438 L 43.28125 46.316406 C 43.75 46.785156 44.367188 47.019531 44.980469 47.019531 C 45.597656 47.019531 46.210938 46.785156 46.679688 46.316406 C 47.621094 45.375 47.621094 43.855469 46.679688 42.914062 L 33.53125 29.765625 C 35.960938 26.636719 37.414062 22.714844 37.414062 18.460938 C 37.414062 8.28125 29.132812 0 18.953125 0 " fill-opacity="1" fill-rule="nonzero"/></g></svg>