<svg xmlns="http://www.w3.org/2000/svg" xmlns:xlink="http://www.w3.org/1999/xlink" width="64" zoomAndPan="magnify" viewBox="0 0 48 48" height="64" preserveAspectRatio="xMidYMid meet" version="1.0"><defs><clipPath id="d5349b4bb2"><path d="M 4.1875 0 L 43.859375 0 L 43.859375 47.019531 L 4.1875 47.019531 Z M 4.1875 0 " clip-rule="nonzero"/></clipPath></defs><g clip-path="url(#d5349b4bb2)"><path fill="#ffffff" d="M 39.792969 -0.113281 L 8.421875 -0.113281 C 8.164062 -0.113281 7.910156 -0.0859375 7.65625 -0.0351562 C 7.40625 0.015625 7.160156 0.0898438 6.921875 0.1875 C 6.683594 0.285156 6.460938 0.40625 6.246094 0.550781 C 6.03125 0.691406 5.832031 0.855469 5.652344 1.039062 C 5.46875 1.21875 5.304688 1.417969 5.164062 1.632812 C 5.019531 1.84375 4.898438 2.070312 4.800781 2.308594 C 4.703125 2.546875 4.628906 2.792969 4.578125 3.042969 C 4.527344 3.296875 4.5 3.550781 4.5 3.808594 L 4.5 42.925781 C 4.496094 43.675781 4.691406 44.371094 5.089844 45.007812 C 5.492188 45.640625 6.027344 46.121094 6.707031 46.445312 C 7.394531 46.777344 8.121094 46.898438 8.882812 46.808594 C 9.640625 46.71875 10.316406 46.433594 10.910156 45.949219 C 11.269531 45.632812 11.6875 45.484375 12.167969 45.5 C 12.957031 45.5 13.285156 45.777344 13.996094 46.464844 C 14.253906 46.765625 14.539062 47.03125 14.855469 47.269531 C 15.167969 47.503906 15.503906 47.707031 15.863281 47.871094 C 16.222656 48.035156 16.59375 48.160156 16.976562 48.242188 C 17.363281 48.328125 17.753906 48.367188 18.148438 48.367188 C 18.539062 48.367188 18.929688 48.328125 19.316406 48.242188 C 19.699219 48.160156 20.070312 48.035156 20.429688 47.871094 C 20.789062 47.707031 21.125 47.503906 21.441406 47.269531 C 21.753906 47.03125 22.042969 46.765625 22.296875 46.464844 C 23.015625 45.777344 23.335938 45.5 24.121094 45.5 C 24.910156 45.5 25.230469 45.777344 25.945312 46.464844 C 26.203125 46.765625 26.488281 47.03125 26.800781 47.265625 C 27.117188 47.503906 27.453125 47.703125 27.808594 47.867188 C 28.167969 48.03125 28.539062 48.15625 28.921875 48.238281 C 29.308594 48.324219 29.695312 48.363281 30.089844 48.363281 C 30.484375 48.363281 30.871094 48.324219 31.257812 48.238281 C 31.640625 48.15625 32.011719 48.03125 32.367188 47.867188 C 32.726562 47.703125 33.0625 47.503906 33.378906 47.265625 C 33.691406 47.03125 33.976562 46.765625 34.234375 46.464844 C 34.953125 45.777344 35.273438 45.5 36.058594 45.5 C 36.527344 45.480469 36.9375 45.625 37.289062 45.933594 C 37.886719 46.414062 38.566406 46.699219 39.328125 46.789062 C 40.089844 46.878906 40.816406 46.753906 41.503906 46.421875 C 42.179688 46.097656 42.71875 45.621094 43.117188 44.984375 C 43.511719 44.351562 43.707031 43.660156 43.703125 42.910156 L 43.703125 3.808594 C 43.703125 3.289062 43.601562 2.789062 43.40625 2.3125 C 43.207031 1.832031 42.921875 1.410156 42.558594 1.039062 C 42.191406 0.671875 41.769531 0.390625 41.289062 0.191406 C 40.808594 -0.0078125 40.308594 -0.109375 39.792969 -0.113281 Z M 15.144531 35.179688 C 14.847656 35.179688 14.5625 35.121094 14.285156 35.007812 C 14.011719 34.894531 13.769531 34.730469 13.558594 34.523438 C 13.351562 34.3125 13.1875 34.070312 13.074219 33.796875 C 12.960938 33.519531 12.902344 33.234375 12.902344 32.9375 C 12.902344 32.640625 12.960938 32.355469 13.074219 32.078125 C 13.1875 31.804688 13.351562 31.5625 13.558594 31.351562 C 13.769531 31.144531 14.011719 30.980469 14.285156 30.867188 C 14.5625 30.753906 14.847656 30.695312 15.144531 30.695312 C 15.441406 30.695312 15.726562 30.753906 16 30.867188 C 16.277344 30.980469 16.519531 31.144531 16.730469 31.351562 C 16.9375 31.5625 17.101562 31.804688 17.214844 32.078125 C 17.328125 32.355469 17.386719 32.640625 17.386719 32.9375 C 17.386719 33.234375 17.328125 33.519531 17.214844 33.796875 C 17.101562 34.070312 16.9375 34.3125 16.730469 34.523438 C 16.519531 34.730469 16.277344 34.894531 16 35.007812 C 15.726562 35.121094 15.441406 35.179688 15.144531 35.179688 Z M 15.144531 23.976562 C 14.847656 23.976562 14.5625 23.917969 14.285156 23.804688 C 14.011719 23.691406 13.769531 23.527344 13.558594 23.320312 C 13.351562 23.109375 13.1875 22.867188 13.074219 22.589844 C 12.960938 22.316406 12.902344 22.03125 12.902344 21.734375 C 12.902344 21.4375 12.960938 21.152344 13.074219 20.875 C 13.1875 20.601562 13.351562 20.359375 13.558594 20.148438 C 13.769531 19.941406 14.011719 19.777344 14.285156 19.664062 C 14.5625 19.550781 14.847656 19.492188 15.144531 19.492188 C 15.441406 19.492188 15.726562 19.550781 16 19.664062 C 16.277344 19.777344 16.519531 19.941406 16.730469 20.148438 C 16.9375 20.359375 17.101562 20.601562 17.214844 20.875 C 17.328125 21.152344 17.386719 21.4375 17.386719 21.734375 C 17.386719 22.03125 17.328125 22.316406 17.214844 22.589844 C 17.101562 22.867188 16.9375 23.109375 16.730469 23.320312 C 16.519531 23.527344 16.277344 23.691406 16 23.804688 C 15.726562 23.917969 15.441406 23.976562 15.144531 23.976562 Z M 15.144531 12.773438 C 14.847656 12.773438 14.5625 12.714844 14.285156 12.601562 C 14.011719 12.488281 13.769531 12.324219 13.558594 12.117188 C 13.351562 11.90625 13.1875 11.664062 13.074219 11.386719 C 12.960938 11.113281 12.902344 10.828125 12.902344 10.53125 C 12.902344 10.234375 12.960938 9.949219 13.074219 9.671875 C 13.1875 9.398438 13.351562 9.15625 13.558594 8.945312 C 13.769531 8.738281 14.011719 8.574219 14.285156 8.460938 C 14.5625 8.347656 14.847656 8.289062 15.144531 8.289062 C 15.441406 8.289062 15.726562 8.347656 16 8.460938 C 16.277344 8.574219 16.519531 8.738281 16.730469 8.945312 C 16.9375 9.15625 17.101562 9.398438 17.214844 9.671875 C 17.328125 9.949219 17.386719 10.234375 17.386719 10.53125 C 17.386719 10.828125 17.328125 11.113281 17.214844 11.386719 C 17.101562 11.664062 16.9375 11.90625 16.730469 12.117188 C 16.519531 12.324219 16.277344 12.488281 16 12.601562 C 15.726562 12.714844 15.441406 12.773438 15.144531 12.773438 Z M 33.070312 34.617188 L 20.746094 34.617188 C 20.523438 34.617188 20.308594 34.574219 20.101562 34.488281 C 19.898438 34.40625 19.714844 34.285156 19.558594 34.125 C 19.398438 33.96875 19.277344 33.785156 19.195312 33.582031 C 19.109375 33.375 19.066406 33.160156 19.066406 32.9375 C 19.066406 32.714844 19.109375 32.5 19.195312 32.292969 C 19.277344 32.089844 19.398438 31.90625 19.558594 31.75 C 19.714844 31.589844 19.898438 31.46875 20.101562 31.386719 C 20.308594 31.300781 20.523438 31.257812 20.746094 31.257812 L 33.070312 31.257812 C 33.292969 31.257812 33.507812 31.300781 33.710938 31.386719 C 33.917969 31.46875 34.101562 31.589844 34.257812 31.75 C 34.414062 31.90625 34.535156 32.089844 34.621094 32.292969 C 34.707031 32.5 34.75 32.714844 34.75 32.9375 C 34.75 33.160156 34.707031 33.375 34.621094 33.582031 C 34.535156 33.785156 34.414062 33.96875 34.257812 34.125 C 34.101562 34.285156 33.917969 34.40625 33.710938 34.488281 C 33.507812 34.574219 33.292969 34.617188 33.070312 34.617188 Z M 33.070312 23.414062 L 20.746094 23.414062 C 20.523438 23.414062 20.308594 23.371094 20.101562 23.285156 C 19.898438 23.203125 19.714844 23.082031 19.558594 22.921875 C 19.398438 22.765625 19.277344 22.582031 19.195312 22.378906 C 19.109375 22.171875 19.066406 21.957031 19.066406 21.734375 C 19.066406 21.511719 19.109375 21.296875 19.195312 21.089844 C 19.277344 20.886719 19.398438 20.703125 19.558594 20.546875 C 19.714844 20.386719 19.898438 20.265625 20.101562 20.183594 C 20.308594 20.097656 20.523438 20.054688 20.746094 20.054688 L 33.070312 20.054688 C 33.292969 20.054688 33.507812 20.097656 33.710938 20.183594 C 33.917969 20.265625 34.101562 20.386719 34.257812 20.546875 C 34.414062 20.703125 34.535156 20.886719 34.621094 21.089844 C 34.707031 21.296875 34.75 21.511719 34.75 21.734375 C 34.75 21.957031 34.707031 22.171875 34.621094 22.378906 C 34.535156 22.582031 34.414062 22.765625 34.257812 22.921875 C 34.101562 23.082031 33.917969 23.203125 33.710938 23.285156 C 33.507812 23.371094 33.292969 23.414062 33.070312 23.414062 Z M 33.070312 12.210938 L 20.746094 12.210938 C 20.523438 12.210938 20.308594 12.167969 20.101562 12.082031 C 19.898438 12 19.714844 11.875 19.558594 11.71875 C 19.398438 11.5625 19.277344 11.378906 19.195312 11.175781 C 19.109375 10.96875 19.066406 10.753906 19.066406 10.53125 C 19.066406 10.308594 19.109375 10.09375 19.195312 9.886719 C 19.277344 9.683594 19.398438 9.5 19.558594 9.34375 C 19.714844 9.183594 19.898438 9.0625 20.101562 8.976562 C 20.308594 8.894531 20.523438 8.851562 20.746094 8.851562 L 33.070312 8.851562 C 33.292969 8.851562 33.507812 8.894531 33.710938 8.976562 C 33.917969 9.0625 34.101562 9.183594 34.257812 9.34375 C 34.414062 9.5 34.535156 9.683594 34.621094 9.886719 C 34.707031 10.09375 34.75 10.308594 34.75 10.53125 C 34.75 10.753906 34.707031 10.96875 34.621094 11.175781 C 34.535156 11.378906 34.414062 11.5625 34.257812 11.71875 C 34.101562 11.875 33.917969 12 33.710938 12.082031 C 33.507812 12.167969 33.292969 12.210938 33.070312 12.210938 Z M 33.070312 12.210938 " fill-opacity="1" fill-rule="nonzero"/></g></svg>