<svg xmlns="http://www.w3.org/2000/svg" xmlns:xlink="http://www.w3.org/1999/xlink" width="64" zoomAndPan="magnify" viewBox="0 0 48 48" height="64" preserveAspectRatio="xMidYMid meet" version="1.0"><defs><clipPath id="63929822b0"><path d="M 0.488281 0 L 47.476562 0 L 47.476562 47.019531 L 0.488281 47.019531 Z M 0.488281 0 " clip-rule="nonzero"/></clipPath></defs><g clip-path="url(#63929822b0)"><path fill="#ffffff" d="M 23.835938 14.570312 C 28.726562 14.476562 32.757812 18.367188 32.851562 23.253906 C 32.851562 23.34375 32.851562 23.425781 32.851562 23.515625 C 32.902344 28.402344 28.988281 32.410156 24.101562 32.464844 C 19.210938 32.519531 15.203125 28.601562 15.148438 23.714844 C 15.148438 23.648438 15.148438 23.582031 15.148438 23.515625 C 15.097656 18.652344 18.972656 14.65625 23.835938 14.570312 Z M 24.785156 0.0195312 C 23.464844 -0.0234375 22.140625 0.0429688 20.835938 0.21875 C 20.371094 0.28125 19.992188 0.605469 19.855469 1.046875 L 18.550781 5.289062 C 18.441406 5.648438 18.164062 5.9375 17.808594 6.0625 C 17.195312 6.28125 16.59375 6.527344 16.007812 6.808594 C 15.664062 6.976562 15.261719 6.96875 14.929688 6.789062 L 11.011719 4.707031 C 10.601562 4.492188 10.097656 4.535156 9.730469 4.816406 C 8.054688 6.089844 6.558594 7.589844 5.28125 9.261719 C 5 9.632812 4.957031 10.132812 5.171875 10.542969 L 7.257812 14.464844 C 7.4375 14.792969 7.453125 15.195312 7.296875 15.535156 C 7.015625 16.125 6.765625 16.726562 6.546875 17.339844 C 6.421875 17.699219 6.132812 17.976562 5.769531 18.082031 L 1.535156 19.390625 C 1.085938 19.523438 0.761719 19.90625 0.703125 20.367188 C 0.417969 22.457031 0.417969 24.570312 0.703125 26.660156 C 0.761719 27.121094 1.085938 27.503906 1.535156 27.640625 L 5.769531 28.945312 C 6.132812 29.054688 6.421875 29.328125 6.546875 29.6875 C 6.765625 30.300781 7.015625 30.902344 7.296875 31.492188 C 7.453125 31.832031 7.4375 32.234375 7.257812 32.566406 L 5.171875 36.484375 C 4.957031 36.894531 5 37.394531 5.28125 37.765625 C 6.558594 39.441406 8.054688 40.933594 9.730469 42.210938 C 10.097656 42.496094 10.601562 42.53125 11.011719 42.320312 L 14.929688 40.242188 C 15.261719 40.0625 15.664062 40.054688 16.007812 40.214844 C 16.59375 40.496094 17.195312 40.746094 17.808594 40.964844 C 18.164062 41.089844 18.441406 41.375 18.550781 41.734375 L 19.855469 45.976562 C 19.992188 46.421875 20.371094 46.75 20.835938 46.808594 C 22.921875 47.089844 25.039062 47.089844 27.125 46.808594 C 27.585938 46.75 27.96875 46.421875 28.109375 45.976562 L 29.410156 41.734375 C 29.523438 41.375 29.796875 41.089844 30.152344 40.964844 C 30.765625 40.746094 31.371094 40.496094 31.957031 40.214844 C 32.296875 40.054688 32.695312 40.0625 33.027344 40.242188 L 36.949219 42.320312 C 37.363281 42.53125 37.863281 42.496094 38.230469 42.210938 C 39.910156 40.933594 41.402344 39.441406 42.679688 37.765625 C 42.964844 37.394531 43.007812 36.894531 42.789062 36.484375 L 40.710938 32.566406 C 40.527344 32.234375 40.515625 31.832031 40.667969 31.492188 C 40.949219 30.902344 41.199219 30.300781 41.414062 29.6875 C 41.539062 29.328125 41.828125 29.054688 42.191406 28.945312 L 46.433594 27.640625 C 46.875 27.5 47.203125 27.121094 47.265625 26.660156 C 47.542969 24.570312 47.542969 22.457031 47.265625 20.367188 C 47.203125 19.90625 46.875 19.523438 46.433594 19.390625 L 42.191406 18.082031 C 41.828125 17.976562 41.539062 17.699219 41.414062 17.339844 C 41.199219 16.726562 40.949219 16.125 40.667969 15.535156 C 40.515625 15.195312 40.527344 14.792969 40.710938 14.464844 L 42.789062 10.542969 C 43.007812 10.132812 42.964844 9.632812 42.679688 9.261719 C 41.402344 7.589844 39.910156 6.089844 38.230469 4.816406 C 37.863281 4.535156 37.363281 4.492188 36.949219 4.707031 L 33.027344 6.789062 C 32.695312 6.96875 32.296875 6.976562 31.957031 6.8125 C 31.371094 6.53125 30.765625 6.28125 30.152344 6.066406 C 29.796875 5.941406 29.523438 5.652344 29.410156 5.289062 L 28.109375 1.050781 C 27.96875 0.605469 27.585938 0.28125 27.125 0.21875 C 26.351562 0.113281 25.570312 0.046875 24.785156 0.0195312 " fill-opacity="1" fill-rule="nonzero"/></g></svg>