<svg xmlns="http://www.w3.org/2000/svg" xmlns:xlink="http://www.w3.org/1999/xlink" width="64" zoomAndPan="magnify" viewBox="0 0 48 48" height="64" preserveAspectRatio="xMidYMid meet" version="1.0"><defs><clipPath id="654ff195d2"><path d="M 0.488281 16 L 28 16 L 28 47.019531 L 0.488281 47.019531 Z M 0.488281 16 " clip-rule="nonzero"/></clipPath></defs><path fill="#ffffff" d="M 8.535156 23.640625 C 8.535156 31.765625 15.148438 38.378906 23.273438 38.378906 C 31.398438 38.378906 38.011719 31.765625 38.011719 23.640625 C 38.011719 15.511719 31.398438 8.902344 23.273438 8.902344 C 15.148438 8.902344 8.535156 15.515625 8.535156 23.640625 Z M 8.535156 23.640625 " fill-opacity="1" fill-rule="nonzero"/><g clip-path="url(#654ff195d2)"><path fill="#ffffff" d="M 23.273438 39.332031 C 21.476562 39.332031 19.941406 40.441406 19.300781 42.011719 C 13.117188 40.953125 8.355469 35.738281 7.957031 29.378906 C 8.0625 29.222656 8.160156 29.058594 8.222656 28.871094 C 8.300781 28.640625 8.34375 28.394531 8.34375 28.148438 L 8.34375 19.410156 C 8.34375 18.164062 7.328125 17.152344 6.082031 17.152344 C 6.03125 17.152344 5.976562 17.160156 5.921875 17.164062 C 5.585938 16.886719 5.160156 16.714844 4.691406 16.714844 C 3.617188 16.714844 2.742188 17.585938 2.742188 18.660156 C 2.742188 18.730469 2.757812 18.792969 2.761719 18.859375 C 1.628906 19.964844 0.914062 21.410156 0.734375 23.003906 C 0.527344 24.828125 1.042969 26.621094 2.183594 28.058594 C 2.929688 28.996094 3.90625 29.699219 5.011719 30.144531 C 5.757812 37.785156 11.671875 43.949219 19.242188 45.035156 C 19.832031 46.703125 21.40625 47.910156 23.273438 47.910156 C 25.640625 47.910156 27.5625 45.984375 27.5625 43.621094 C 27.5625 41.257812 25.640625 39.332031 23.273438 39.332031 Z M 23.273438 39.332031 " fill-opacity="1" fill-rule="nonzero"/></g><path fill="#ffffff" d="M 40.308594 16.15625 C 40.777344 15.867188 41.3125 15.710938 41.855469 15.710938 C 42.097656 15.710938 42.328125 15.75 42.550781 15.800781 C 38.867188 5.839844 28.0625 0.203125 17.671875 3.144531 C 11.367188 4.925781 6.253906 9.707031 3.984375 15.804688 C 4.214844 15.75 4.449219 15.710938 4.691406 15.710938 C 5.242188 15.710938 5.765625 15.863281 6.230469 16.152344 C 6.507812 16.164062 6.769531 16.21875 7.023438 16.296875 C 9.054688 11.355469 13.300781 7.507812 18.492188 6.039062 C 27.175781 3.582031 36.199219 8.132812 39.527344 16.296875 C 39.777344 16.222656 40.039062 16.167969 40.308594 16.15625 Z M 40.308594 16.15625 " fill-opacity="1" fill-rule="nonzero"/><path fill="#ffffff" d="M 43.78125 18.878906 C 43.792969 18.808594 43.804688 18.738281 43.804688 18.664062 C 43.804688 17.589844 42.929688 16.714844 41.855469 16.714844 C 41.386719 16.714844 40.960938 16.886719 40.625 17.167969 C 40.226562 17.136719 39.828125 17.207031 39.460938 17.386719 C 38.921875 17.65625 38.515625 18.117188 38.324219 18.691406 C 38.246094 18.921875 38.203125 19.167969 38.203125 19.414062 L 38.203125 28.152344 C 38.203125 29.398438 39.21875 30.410156 40.464844 30.410156 C 40.710938 30.410156 40.953125 30.371094 41.191406 30.292969 C 44.777344 29.078125 46.710938 25.167969 45.496094 21.582031 C 45.144531 20.546875 44.554688 19.632812 43.78125 18.878906 Z M 43.78125 18.878906 " fill-opacity="1" fill-rule="nonzero"/></svg>