<svg xmlns="http://www.w3.org/2000/svg" xmlns:xlink="http://www.w3.org/1999/xlink" width="64" zoomAndPan="magnify" viewBox="0 0 48 48" height="64" preserveAspectRatio="xMidYMid meet" version="1.0"><defs><clipPath id="1fb6062738"><path d="M 0.488281 0 L 47.507812 0 L 47.507812 47.019531 L 0.488281 47.019531 Z M 0.488281 0 " clip-rule="nonzero"/></clipPath></defs><g clip-path="url(#1fb6062738)"><path fill="#ffffff" d="M 39.082031 30.136719 C 36.660156 30.136719 34.484375 31.167969 32.949219 32.808594 L 17.296875 24.117188 C 17.304688 23.957031 17.320312 23.792969 17.320312 23.625 C 17.320312 23.496094 17.300781 23.363281 17.300781 23.234375 L 33.160156 14.429688 C 34.679688 15.9375 36.769531 16.871094 39.082031 16.871094 C 43.730469 16.871094 47.5 13.09375 47.5 8.4375 C 47.503906 3.773438 43.730469 -0.00390625 39.082031 -0.00390625 C 34.441406 -0.00390625 30.667969 3.773438 30.667969 8.4375 C 30.667969 8.683594 30.6875 8.933594 30.707031 9.179688 L 15.046875 17.875 C 13.507812 16.230469 11.332031 15.1875 8.902344 15.1875 C 4.253906 15.1875 0.488281 18.964844 0.488281 23.625 C 0.488281 28.285156 4.253906 32.066406 8.902344 32.066406 C 11.296875 32.066406 13.449219 31.0625 14.984375 29.449219 L 30.6875 38.171875 C 30.6875 38.304688 30.667969 38.433594 30.667969 38.574219 C 30.667969 43.238281 34.441406 47.011719 39.082031 47.011719 C 43.730469 47.011719 47.5 43.238281 47.5 38.574219 C 47.503906 33.914062 43.730469 30.136719 39.082031 30.136719 Z M 39.082031 30.136719 " fill-opacity="1" fill-rule="nonzero"/></g></svg>